<?xml version="1.0"?>
<svg xmlns="http://www.w3.org/2000/svg" xmlns:xlink="http://www.w3.org/1999/xlink" xmlns:svgjs="http://svgjs.com/svgjs" version="1.1" width="512" height="512" x="0" y="0" viewBox="0 0 24 24" style="enable-background:new 0 0 512 512" xml:space="preserve"><g><path xmlns="http://www.w3.org/2000/svg" d="M19,2H18V1a1,1,0,0,0-2,0V2H8V1A1,1,0,0,0,6,1V2H5A5.006,5.006,0,0,0,0,7V19a5.006,5.006,0,0,0,5,5H19a5.006,5.006,0,0,0,5-5V7A5.006,5.006,0,0,0,19,2ZM2,7A3,3,0,0,1,5,4H19a3,3,0,0,1,3,3V8H2ZM19,22H5a3,3,0,0,1-3-3V10H22v9A3,3,0,0,1,19,22Z" fill="#ffffff" data-original="#000000"/><circle xmlns="http://www.w3.org/2000/svg" cx="12" cy="15" r="1.5" fill="#ffffff" data-original="#000000"/><circle xmlns="http://www.w3.org/2000/svg" cx="7" cy="15" r="1.5" fill="#ffffff" data-original="#000000"/><circle xmlns="http://www.w3.org/2000/svg" cx="17" cy="15" r="1.5" fill="#ffffff" data-original="#000000"/></g></svg>
